#define close_width 14
#define close_height 14
static unsigned char close_bits[] = {
   0xc0, 0x00, 0xe0, 0x01, 0xf0, 0x03, 0xf8, 0x07, 0xfc, 0x0f, 0xfe, 0x1f,
   0xff, 0x3f, 0xff, 0x3f, 0xfe, 0x1f, 0xfc, 0x0f, 0xf8, 0x07, 0xf0, 0x03,
   0xe0, 0x01, 0xc0, 0x00 };
