#define max_width 14
#define max_height 14
static unsigned char max_bits[] = {
   0xc0, 0x00, 0xe0, 0x01, 0xf0, 0x03, 0x38, 0x07, 0x1c, 0x0e, 0x0e, 0x1c,
   0x07, 0x38, 0x07, 0x38, 0x0e, 0x1c, 0x1c, 0x0e, 0x38, 0x07, 0xf0, 0x03,
   0xe0, 0x01, 0xc0, 0x00 };
